<svg width="882" height="668" viewBox="0 0 882 668" fill="none" xmlns="http://www.w3.org/2000/svg">
<path d="M103.438 501.197C102.685 501.228 101.939 501.038 101.303 500.651C100.667 500.265 100.17 499.701 99.8808 499.036C99.5913 498.37 99.5228 497.636 99.6845 496.933C99.8463 496.23 100.231 495.591 100.785 495.103C100.879 494.751 100.946 494.498 101.039 494.147C101.006 494.07 100.973 493.993 100.939 493.917C100.184 492.203 98.9157 490.741 97.2933 489.714C95.6709 488.686 93.7671 488.14 91.8208 488.143C89.8745 488.146 87.9727 488.698 86.3541 489.73C84.7356 490.762 83.4725 492.228 82.7236 493.944C79.7304 500.792 75.9232 507.651 74.9745 514.896C74.5566 518.098 74.7236 521.346 75.4678 524.494C68.5 509.899 64.8986 494.045 64.9079 478.005C64.9146 473.98 65.1569 469.958 65.6337 465.959C66.0276 462.681 66.5715 459.426 67.2654 456.195C71.0516 438.664 79.1376 422.241 90.8593 408.276C96.5248 405.337 101.111 400.811 104 395.306C105.046 393.327 105.787 391.214 106.2 389.032C105.561 389.111 104.912 389.159 104.274 389.198C104.075 389.207 103.866 389.217 103.667 389.227L103.592 389.23C102.89 389.258 102.195 389.093 101.589 388.752C100.984 388.412 100.494 387.912 100.179 387.313C99.864 386.713 99.7372 386.039 99.8139 385.372C99.8906 384.705 100.167 384.074 100.611 383.554C100.887 383.23 101.164 382.907 101.44 382.584C101.86 382.085 102.29 381.596 102.71 381.097C102.758 381.049 102.804 380.999 102.846 380.947C103.329 380.378 103.811 379.819 104.294 379.25C103.418 377.946 102.238 376.852 100.847 376.054C96.0274 373.345 89.3671 375.201 85.8734 379.363C82.3693 383.525 81.698 389.372 82.9014 394.583C84.0863 399.017 86.0526 403.227 88.7162 407.032C88.4539 407.351 88.1811 407.66 87.9189 407.98C83.1239 413.845 78.9422 420.145 75.434 426.79C76.299 419.339 75.3 411.799 72.5192 404.789C69.6997 398.256 64.4012 392.747 59.7369 387.094C54.1343 380.304 42.6114 383.239 41.6044 391.83C41.5946 391.913 41.5851 391.996 41.5758 392.079C42.2696 392.455 42.9486 392.854 43.6129 393.275C44.4475 393.81 45.0934 394.574 45.4661 395.465C45.8388 396.357 45.9209 397.335 45.7016 398.272C45.4823 399.209 44.9719 400.06 44.2372 400.715C43.5025 401.37 42.5778 401.798 41.5842 401.942L41.4825 401.957C41.725 404.348 42.1576 406.719 42.7763 409.048C44.5697 415.549 47.7498 421.627 52.1173 426.9C56.4848 432.173 61.9455 436.528 68.157 439.691C68.5648 439.892 68.9622 440.093 69.37 440.284C65.8395 449.781 63.6169 459.677 62.7582 469.723C62.2716 475.649 62.2875 481.604 62.8057 487.528L62.7747 487.318C61.4484 480.729 57.7821 474.778 52.3952 470.471C44.394 464.166 33.0765 461.828 24.4411 456.756C23.5234 456.19 22.4557 455.887 21.3638 455.882C20.2719 455.878 19.2014 456.171 18.2786 456.729C17.3558 457.286 16.6191 458.084 16.1554 459.028C15.6918 459.972 15.5205 461.024 15.6619 462.058C15.6733 462.131 15.6849 462.205 15.6968 462.279C16.9846 462.783 18.2382 463.363 19.4505 464.016C20.1443 464.391 20.8233 464.79 21.4876 465.212C22.3222 465.747 22.9681 466.51 23.3408 467.401C23.7135 468.293 23.7956 469.271 23.5763 470.208C23.357 471.145 22.8466 471.997 22.1119 472.651C21.3772 473.306 20.4525 473.734 19.4589 473.878L19.3572 473.893C19.2839 473.903 19.2211 473.913 19.1479 473.923C21.3398 478.95 24.4211 483.579 28.2569 487.607C32.9956 492.484 38.727 496.386 45.0997 499.072C51.4724 501.758 58.3521 503.173 65.317 503.229L65.3275 503.229C67.2022 511.081 69.9261 518.725 73.4552 526.04L102.655 526.099C102.761 525.789 102.856 525.47 102.95 525.16C100.247 525.317 97.5341 525.157 94.8715 524.684C97.0432 522.149 99.2148 519.594 101.387 517.059C101.435 517.011 101.48 516.961 101.523 516.909C102.624 515.612 103.737 514.324 104.838 513.027L104.839 513.025C104.905 509.042 104.435 505.066 103.439 501.197L103.438 501.197Z" fill="#F2F2F2"/>
<path d="M233.628 378.138C231.953 377.752 230.21 377.721 228.521 378.048C226.831 378.375 225.238 379.051 223.852 380.03C222.467 381.008 221.323 382.265 220.501 383.712C219.679 385.159 219.199 386.761 219.096 388.404L193.636 396.81L195.214 412.835L230.992 400.482C233.894 400.466 236.688 399.434 238.846 397.582C241.004 395.729 242.375 393.185 242.7 390.431C243.025 387.676 242.281 384.904 240.609 382.638C238.937 380.373 236.453 378.772 233.628 378.138L233.628 378.138Z" fill="#FFB6B6"/>
<path d="M192.069 424.623C181.939 431.338 164.11 434.747 139.854 434.54C138.511 434.541 137.183 434.275 135.953 433.76C134.723 433.244 133.619 432.491 132.709 431.547C126.232 425.078 126.516 410.341 126.559 408.918L119.497 383.295C119.346 382.903 115.429 372.387 119.45 365.057C120.306 363.526 121.498 362.191 122.945 361.142C124.392 360.093 126.06 359.355 127.834 358.98C142.886 355.198 156.951 393.694 158.737 398.78L179.857 395.389L194.439 394.846L209.289 387.055L217.601 406.165L196.904 420.551C195.475 422.094 193.851 423.462 192.069 424.623Z" fill="#2F2E41"/>
<path d="M232.376 636.455L247.926 637.181L258.246 580.233L235.295 579.161L232.376 636.455Z" fill="#FFB6B6"/>
<path d="M228.893 628.947L253.546 628.694L253.033 638.754L275.618 655.263C276.733 656.079 277.547 657.213 277.94 658.501C278.333 659.789 278.284 661.164 277.802 662.423C277.319 663.683 276.427 664.763 275.257 665.504C274.086 666.245 272.698 666.61 271.295 666.544L242.03 665.177L237.493 654.99L235.016 664.849L223.981 664.334L228.893 628.947Z" fill="#2F2E41"/>
<path d="M394.997 514.466L400.691 500.625L347.508 473.051L320.581 489.143L394.997 514.466Z" fill="#FFB6B6"/>
<path d="M386.437 515.214L394.071 492.822L403.885 496.508L427.483 481.355C428.648 480.607 430.034 480.234 431.437 480.291C432.84 480.348 434.188 480.832 435.283 481.672C436.378 482.512 437.163 483.665 437.524 484.961C437.885 486.258 437.803 487.631 437.289 488.879L426.572 514.927L415.017 515.77L424.004 521.169L419.963 530.99L386.437 515.214Z" fill="#2F2E41"/>
<path d="M89.2374 472.617C89.2374 472.617 95.6161 512.017 126.142 514.996C156.668 517.974 184.838 504.892 184.838 504.892L270.379 479.917C270.379 479.917 361.259 504.781 376.517 508.7C376.517 508.7 387.093 485.892 386.744 484.417C383.524 470.842 379.276 480.012 379.276 480.012L282.675 438.985C282.675 438.985 267.417 435.065 240.934 445.705C214.451 456.345 143.511 481.978 143.511 481.978L89.2374 472.617Z" fill="#2F2E41"/>
<path d="M89.5949 470.202C89.5949 470.202 84.407 517.377 114.134 524.646C142.392 531.556 181.404 524.606 181.404 524.606L227.905 520.064C227.905 520.064 229.824 577.129 229.767 605.321C239.21 606.567 248.727 607.235 258.259 607.323C260.295 607.328 260.432 606.309 260.432 606.309L264.574 507.699C264.859 503.412 264.202 499.115 262.644 495.084C261.087 491.054 258.663 487.38 255.529 484.298C252.396 481.216 248.621 478.795 244.449 477.191C240.277 475.586 235.8 474.833 231.305 474.981C229.11 475.057 226.808 475.2 224.398 475.413C195.792 477.974 160.297 472.333 160.297 472.333L89.5949 470.202Z" fill="#2F2E41"/>
<path d="M172.229 401.92C172.229 401.92 184.162 471.69 175.991 477.241C167.82 482.792 156.63 482.791 156.63 482.791L154.106 444.277L172.229 401.92Z" fill="#2F2E41"/>
<path d="M152.266 316.221L168.38 330.908C175.87 337.734 180.825 346.707 182.495 356.465C184.165 366.223 182.458 376.235 177.633 384.982L169.887 399.023L152.266 316.221Z" fill="#2F2E41"/>
<path d="M148.651 318.678L170.477 342.523C175.267 347.756 178.229 354.286 178.95 361.203C179.277 364.344 179.136 367.513 178.532 370.616L170.201 413.407L163.879 475.214C163.879 475.214 116.014 488.962 111.162 467.573C106.309 446.184 148.651 318.678 148.651 318.678Z" fill="black"/>
<path d="M127.787 480.951C96.3517 475.881 88.6506 474.872 88.1712 474.696L87.6909 474.519L90.8796 456.459L104.253 425.247C105.138 415.029 110.772 401.195 107.588 390.067C98.3302 357.717 113.57 312.061 120.505 308.575L139.733 296.589L146.462 302.506L158.118 318.159C167.651 359.098 174.215 397.25 173.888 399.581L167.871 439.628L160.846 454.98C139.608 464.715 153.834 485.152 127.787 480.951Z" fill="#2F2E41"/>
<path d="M184.779 451.679L234.179 439.161L238.528 438.185L241.63 437.488L245.244 436.679L245.273 436.673C245.798 436.56 246.349 436.648 246.806 436.92L265.096 457.954C265.262 458.051 265.408 458.177 265.527 458.324C265.576 458.363 265.62 458.407 265.657 458.456C265.859 458.721 265.99 459.029 266.039 459.353C266.087 459.678 266.051 460.009 265.934 460.317C265.816 460.625 265.622 460.901 265.367 461.12C265.112 461.339 264.804 461.495 264.471 461.574L190.782 477.615C190.4 477.697 190.002 477.674 189.633 477.549C189.265 477.424 188.94 477.201 188.698 476.908L187.953 475.981L183.915 457.224L183.63 454.789C183.445 454.563 183.315 454.302 183.249 454.022C183.132 453.518 183.226 452.99 183.512 452.552C183.799 452.113 184.253 451.8 184.779 451.679Z" fill="#E6E6E6"/>
<path opacity="0.17" d="M187.952 475.979L188.702 476.909C188.944 477.202 189.267 477.424 189.635 477.549C190.003 477.674 190.4 477.698 190.781 477.617L264.472 461.575C264.805 461.496 265.113 461.34 265.368 461.121C265.623 460.902 265.818 460.626 265.934 460.318C266.051 460.01 266.087 459.68 266.039 459.355C265.99 459.031 265.858 458.723 265.656 458.459C265.62 458.409 265.577 458.364 265.527 458.327L187.952 475.979Z" fill="black"/>
<path d="M244.876 436.542L243.727 346.844C243.672 346.304 243.844 345.765 244.205 345.346L253.681 326.601L254.664 325.465C255.029 325.05 255.551 324.788 256.116 324.736L258.171 324.557C258.737 324.505 259.301 324.67 259.74 325.015C260.179 325.361 260.456 325.859 260.51 326.4L262.167 421.308L262.169 421.315L263.067 430.455L264.131 441.308L264.134 441.322L265.795 458.208C265.826 458.497 265.792 458.788 265.693 459.063C265.595 459.338 265.435 459.589 265.225 459.798C265.02 460.011 264.77 460.18 264.492 460.293C264.214 460.406 263.913 460.461 263.611 460.455L262.274 460.426C261.762 460.412 261.271 460.226 260.887 459.901L260.141 459.257L259.795 458.955L245.583 437.876C245.179 437.533 244.926 437.056 244.876 436.542Z" fill="#E6E6E6"/>
<path opacity="0.17" d="M253.685 326.601L259.794 458.959L260.142 459.257L260.886 459.898C261.269 460.225 261.76 460.411 262.273 460.424L263.612 460.453C263.915 460.458 264.215 460.403 264.494 460.29C264.773 460.177 265.023 460.009 265.229 459.797C265.435 459.585 265.592 459.334 265.69 459.06C265.788 458.786 265.824 458.496 265.796 458.208L260.508 326.402C260.454 325.861 260.178 325.363 259.74 325.016C259.302 324.669 258.738 324.503 258.172 324.553L256.113 324.737C255.833 324.762 255.562 324.838 255.314 324.964C255.065 325.089 254.846 325.26 254.668 325.468L253.685 326.601Z" fill="black"/>
<path d="M254.21 331.95L245.537 352.284L246.481 413.169L255.799 426.098L254.21 331.95Z" fill="black"/>
<path d="M190.471 451.153C189.998 451.281 189.598 451.583 189.358 451.992C189.118 452.401 189.058 452.885 189.192 453.337L192.964 468.482L196.529 467.52L192.757 452.375C192.623 451.923 192.307 451.541 191.878 451.312C191.45 451.083 190.943 451.026 190.471 451.153Z" fill="#2F2E41"/>
<path d="M197.6 449.229C197.128 449.357 196.728 449.659 196.488 450.068C196.248 450.478 196.188 450.961 196.322 451.413L197.128 454.137L200.693 453.176L199.887 450.451C199.753 450 199.437 449.617 199.008 449.388C198.58 449.159 198.073 449.102 197.6 449.229Z" fill="#2F2E41"/>
<path d="M204.73 447.306C204.258 447.433 203.858 447.735 203.618 448.145C203.378 448.554 203.318 449.038 203.452 449.489L204.258 452.214L207.823 451.252L207.017 448.527C206.883 448.076 206.567 447.694 206.138 447.465C205.709 447.235 205.203 447.178 204.73 447.306Z" fill="#2F2E41"/>
<path d="M211.86 445.382C211.388 445.51 210.987 445.811 210.748 446.221C210.508 446.63 210.448 447.114 210.582 447.566L211.388 450.29L214.953 449.328L214.147 446.604C214.013 446.152 213.697 445.77 213.268 445.541C212.839 445.312 212.333 445.255 211.86 445.382Z" fill="#2F2E41"/>
<path d="M218.99 443.458C218.517 443.586 218.117 443.888 217.878 444.297C217.638 444.707 217.578 445.19 217.711 445.642L218.518 448.366L222.083 447.404L221.276 444.68C221.143 444.229 220.827 443.846 220.398 443.617C219.969 443.388 219.463 443.331 218.99 443.458Z" fill="#2F2E41"/>
<path d="M226.12 441.535C225.647 441.662 225.247 441.964 225.007 442.374C224.768 442.783 224.708 443.267 224.841 443.718L225.647 446.443L229.212 445.481L228.406 442.756C228.273 442.305 227.957 441.923 227.528 441.693C227.099 441.464 226.593 441.407 226.12 441.535Z" fill="#2F2E41"/>
<path d="M233.25 439.611C232.777 439.739 232.377 440.04 232.137 440.45C231.898 440.859 231.838 441.343 231.971 441.795L232.777 444.519L236.342 443.557L235.536 440.833C235.402 440.381 235.086 439.999 234.658 439.77C234.229 439.541 233.723 439.484 233.25 439.611Z" fill="#2F2E41"/>
<path d="M240.38 437.687C239.907 437.815 239.507 438.117 239.267 438.526C239.027 438.936 238.968 439.419 239.101 439.871L239.907 442.595L243.472 441.633L242.666 438.909C242.532 438.458 242.216 438.075 241.788 437.846C241.359 437.617 240.853 437.56 240.38 437.687Z" fill="#2F2E41"/>
<path d="M199.083 455.44C198.611 455.568 198.21 455.869 197.971 456.279C197.731 456.688 197.671 457.172 197.805 457.623L198.611 460.348L202.176 459.386L201.37 456.662C201.236 456.21 200.92 455.828 200.491 455.599C200.062 455.37 199.556 455.312 199.083 455.44Z" fill="#2F2E41"/>
<path d="M206.213 453.516C205.741 453.644 205.34 453.946 205.101 454.355C204.861 454.765 204.801 455.248 204.935 455.7L205.741 458.424L209.306 457.462L208.499 454.738C208.366 454.287 208.05 453.904 207.621 453.675C207.192 453.446 206.686 453.389 206.213 453.516Z" fill="#2F2E41"/>
<path d="M213.343 451.592C212.87 451.72 212.47 452.022 212.23 452.431C211.991 452.841 211.931 453.325 212.064 453.776L212.871 456.501L216.435 455.539L215.629 452.814C215.496 452.363 215.18 451.98 214.751 451.751C214.322 451.522 213.816 451.465 213.343 451.592Z" fill="#2F2E41"/>
<path d="M220.473 449.669C220 449.796 219.6 450.098 219.36 450.508C219.121 450.917 219.061 451.401 219.194 451.852L220 454.577L223.565 453.615L222.759 450.891C222.625 450.439 222.309 450.057 221.881 449.828C221.452 449.599 220.946 449.541 220.473 449.669Z" fill="#2F2E41"/>
<path d="M227.603 447.745C227.13 447.873 226.73 448.175 226.49 448.584C226.251 448.994 226.191 449.477 226.324 449.929L227.13 452.653L230.695 451.691L229.889 448.967C229.755 448.515 229.439 448.133 229.011 447.904C228.582 447.675 228.076 447.618 227.603 447.745Z" fill="#2F2E41"/>
<path d="M234.733 445.821C234.26 445.949 233.86 446.251 233.62 446.66C233.38 447.07 233.321 447.554 233.454 448.005L234.26 450.729L237.825 449.768L237.019 447.043C236.885 446.592 236.569 446.209 236.141 445.98C235.712 445.751 235.205 445.694 234.733 445.821Z" fill="#2F2E41"/>
<path d="M241.863 443.898C241.39 444.025 240.99 444.327 240.75 444.737C240.51 445.146 240.451 445.63 240.584 446.081L241.39 448.806L244.955 447.844L244.149 445.12C244.015 444.668 243.699 444.286 243.27 444.057C242.842 443.828 242.335 443.77 241.863 443.898Z" fill="#2F2E41"/>
<path d="M200.566 461.65C200.093 461.778 199.693 462.08 199.454 462.489C199.214 462.899 199.154 463.382 199.287 463.834L200.094 466.558L203.658 465.596L202.852 462.872C202.719 462.421 202.403 462.038 201.974 461.809C201.545 461.58 201.039 461.523 200.566 461.65Z" fill="#2F2E41"/>
<path d="M207.696 459.727C207.223 459.854 206.823 460.156 206.583 460.566C206.344 460.975 206.284 461.459 206.417 461.91L207.223 464.635L210.788 463.673L209.982 460.948C209.849 460.497 209.533 460.115 209.104 459.885C208.675 459.656 208.169 459.599 207.696 459.727Z" fill="#2F2E41"/>
<path d="M214.826 457.803C214.353 457.931 213.953 458.232 213.713 458.642C213.474 459.051 213.414 459.535 213.547 459.987L214.353 462.711L217.918 461.749L217.112 459.025C216.978 458.573 216.662 458.191 216.234 457.962C215.805 457.733 215.299 457.676 214.826 457.803Z" fill="#2F2E41"/>
<path d="M221.956 455.879C221.483 456.007 221.083 456.309 220.843 456.718C220.603 457.128 220.544 457.611 220.677 458.063L221.483 460.787L225.048 459.825L224.242 457.101C224.108 456.65 223.792 456.267 223.364 456.038C222.935 455.809 222.429 455.752 221.956 455.879Z" fill="#2F2E41"/>
<path d="M229.086 453.956C228.613 454.083 228.213 454.385 227.973 454.794C227.733 455.204 227.674 455.688 227.807 456.139L228.613 458.864L232.178 457.902L231.372 455.177C231.238 454.726 230.922 454.343 230.494 454.114C230.065 453.885 229.558 453.828 229.086 453.956Z" fill="#2F2E41"/>
<path d="M236.216 452.032C235.743 452.16 235.343 452.461 235.103 452.871C234.863 453.28 234.804 453.764 234.937 454.216L235.743 456.94L239.308 455.978L238.502 453.254C238.368 452.802 238.052 452.42 237.623 452.191C237.195 451.962 236.688 451.905 236.216 452.032Z" fill="#2F2E41"/>
<path d="M243.346 450.108C242.873 450.236 242.473 450.538 242.233 450.947C241.993 451.357 241.933 451.84 242.067 452.292L242.873 455.016L246.438 454.054L245.632 451.33C245.498 450.878 245.182 450.496 244.753 450.267C244.325 450.038 243.818 449.981 243.346 450.108Z" fill="#2F2E41"/>
<path d="M222.433 438.318C221.48 436.947 220.224 435.791 218.753 434.933C217.282 434.075 215.632 433.535 213.92 433.352C212.207 433.169 210.473 433.347 208.84 433.873C207.207 434.4 205.715 435.262 204.469 436.398L179.818 426.016L169.562 438.786L204.589 452.98C206.728 454.854 209.511 455.913 212.413 455.958C215.314 456.002 218.131 455.029 220.331 453.221C222.53 451.414 223.959 448.899 224.347 446.152C224.734 443.405 224.053 440.618 222.433 438.318Z" fill="#FFB6B6"/>
<path d="M158.862 445.382C146.654 443.721 131.155 434.634 113.521 418.722C112.536 417.85 111.751 416.792 111.216 415.615C110.681 414.438 110.408 413.168 110.414 411.885C110.272 402.936 120.974 392.32 122.02 391.305L135.089 367.938C135.257 367.552 139.875 357.301 148.042 354.542C149.76 353.976 151.585 353.772 153.393 353.943C155.201 354.115 156.949 354.658 158.516 355.536C172.245 362.544 155.142 399.895 152.829 404.784L170.728 416.022L181.805 425.098L198.24 429.037L190.725 448.444L165.307 445.538C163.16 445.74 160.996 445.688 158.862 445.382Z" fill="#2F2E41"/>
<path d="M183.303 268.481C185.394 252.076 173.47 237.19 156.67 235.232C139.87 233.275 124.554 244.987 122.463 261.393C120.371 277.798 132.295 292.684 149.095 294.641C165.896 296.599 181.211 284.886 183.303 268.481Z" fill="#FFB6B6"/>
<path d="M73.1248 242.57C79.0299 237.413 82.4625 230.057 87.43 223.999C92.3976 217.94 100.337 212.924 107.743 215.331C112.847 216.991 116.333 221.878 117.755 227.04C119.176 232.201 118.868 237.675 118.549 243.035C119.816 232.091 128.705 222.374 139.534 220.096C150.362 217.819 162.293 223.157 167.699 232.697C170.868 230.508 174.767 229.506 178.659 229.88C182.55 230.254 186.163 231.98 188.812 234.729C194.013 240.391 194.096 250.025 188.993 255.88C183.891 261.736 174.293 263.02 167.921 258.701L165.24 260.539C166.019 265.232 162.703 270.282 158.061 271.473C154.296 272.44 149.26 271.619 147.459 275.059C146.2 277.463 147.612 280.35 149.231 282.499C150.85 284.647 152.811 286.9 152.694 289.598C152.518 293.67 147.796 295.986 143.722 296.375C133.898 297.312 123.828 291.847 119.344 283.144C119.258 282.976 119.162 282.807 119.057 282.637C116.447 278.499 114.747 273.897 114.061 269.111C113.375 264.326 113.718 259.457 115.068 254.802C115.616 252.975 115.48 251.553 114.192 250.955C108.623 248.371 91.8285 250.476 86.4392 253.52C81.0495 256.563 76.4926 260.89 71.2547 264.188C66.0164 267.485 59.5884 269.751 53.6947 268C48.9744 266.598 45.2945 262.772 43.0469 258.412C40.7998 254.052 39.8101 249.16 38.9826 244.317C48.9062 251.451 63.8301 250.687 73.1248 242.57Z" fill="#2F2E41"/>
</svg>
